<?xml version="1.0" encoding="UTF-8" standalone="no"?>
<svg
   xmlns:dc="http://purl.org/dc/elements/1.1/"
   xmlns:cc="http://creativecommons.org/ns#"
   xmlns:rdf="http://www.w3.org/1999/02/22-rdf-syntax-ns#"
   xmlns:svg="http://www.w3.org/2000/svg"
   xmlns="http://www.w3.org/2000/svg"
   xmlns:sodipodi="http://sodipodi.sourceforge.net/DTD/sodipodi-0.dtd"
   xmlns:inkscape="http://www.inkscape.org/namespaces/inkscape"
   viewBox="0 0 1221.2195 1215.2705"
   version="1.1"
   x="0px"
   y="0px"
   id="svg2"
   inkscape:version="0.91 r13725"
   sodipodi:docname="email.svg">
  <metadata
     id="metadata16">
    <rdf:RDF>
      <cc:Work
         rdf:about="">
        <dc:format>image/svg+xml</dc:format>
        <dc:type
           rdf:resource="http://purl.org/dc/dcmitype/StillImage" />
      </cc:Work>
    </rdf:RDF>
  </metadata>
  <defs
     id="defs14" />
  <sodipodi:namedview
     pagecolor="#ffffff"
     bordercolor="#666666"
     borderopacity="1"
     objecttolerance="10"
     gridtolerance="10"
     guidetolerance="10"
     inkscape:pageopacity="0"
     inkscape:pageshadow="2"
     inkscape:window-width="1229"
     inkscape:window-height="776"
     id="namedview12"
     showgrid="false"
     inkscape:zoom="0.19419545"
     inkscape:cx="610.60974"
     inkscape:cy="607.63525"
     inkscape:window-x="51"
     inkscape:window-y="24"
     inkscape:window-maximized="1"
     inkscape:current-layer="g4" />
  <g
     transform="translate(-2471.0935,4623.6741)"
     id="g4">
    <path
       style="fill:#f9f9f9"
       d="m 3417.9682,-3652.6205 c -62.9685,-5.3461 -126.4422,-37.3082 -167.0419,-84.1135 -15.9155,-18.3482 -25.3661,-32.3757 -35.8741,-53.2479 -18.7976,-37.3381 -27.7268,-74.2886 -27.6988,-114.6219 0.046,-66.542 26.6776,-130.7886 73.7333,-177.8776 71.865,-71.916 179.1939,-93.767 273.5132,-55.6843 112.9093,45.5887 176.9968,165.3629 152.535,285.0751 -4.1147,20.1364 -11.9978,42.2465 -22.5007,63.1087 -19.9049,39.5374 -47.1438,70.384 -84.166,95.3133 -35.5787,23.9573 -77.4803,38.5332 -121.25,42.1781 -16.9067,1.4079 -23.3762,1.3875 -41.25,-0.13 z m 37.5,-61.1504 c 47.4853,-4.5008 85.6757,-22.3341 118.8306,-55.4891 22.1626,-22.1625 36.8425,-45.5833 46.1633,-73.6503 19.1003,-57.5152 10.8953,-116.9671 -23.236,-168.3643 -10.4699,-15.7662 -34.0577,-39.354 -49.8239,-49.8239 -67.0147,-44.5024 -148.1033,-44.5024 -215.118,0 -15.7662,10.4699 -39.354,34.0577 -49.8239,49.8239 -44.5024,67.0147 -44.5024,148.1033 0,215.118 10.4699,15.7662 34.0577,39.354 49.8239,49.8239 28.2532,18.7621 57.7106,29.3882 90.1213,32.5093 15.411,1.484 17.9169,1.488 33.0627,0.053 z m -35,-89.2373 c -8.25,-8.3556 -24.9983,-24.0849 -37.2184,-34.9539 -36.2358,-32.2296 -55.3915,-54.2414 -62.3097,-71.6001 -4.1396,-10.3868 -4.1911,-31.5484 -0.1017,-41.785 4.0004,-10.0139 9.6025,-18.1042 18.6946,-26.9977 13.8236,-13.5217 26.898,-19.1207 44.6494,-19.1207 18.3557,0 34.3092,6.032 47.6627,18.0213 l 7.6269,6.8478 6.7481,-6.2618 c 9.1665,-8.5058 24.1046,-15.7159 36.4356,-17.5862 29.6872,-4.5027 63.535,12.2676 76.7584,39.5976 2.8438,5.8775 4.0139,9.7175 4.9072,20.1087 1.5687,18.247 -8.121,45.2487 -40.3009,76.8884 -18.864,18.5474 -84.8363,72.8393 -87.7439,72.2089 -0.4446,-0.096 -7.5583,-7.0116 -15.8083,-15.3673 z m -949.3501,-422.2699 0.025,-350.3125 269.4483,269.6875 c 148.1966,148.3281 269.9224,269.6875 270.5019,269.6875 0.5795,0 122.3053,-121.3594 270.5019,-269.6875 l 269.4483,-269.6875 0.025,195.8008 0.025,195.8007 -11.2687,-4.2409 c -55.2581,-20.7961 -122.3881,-24.2436 -179.9813,-9.2432 -31.6078,8.2325 -66.4045,23.6846 -92.5,41.0765 -72.0345,48.0088 -119.2693,124.7517 -130.1347,211.4311 -1.7142,13.6752 -2.0871,49.1676 -0.6468,61.5625 l 0.9805,8.4375 -333.2245,0 -333.2245,0 0.025,-350.3125 z m 286.9812,-147.1668 -251.3811,-251.2292 504.375,0 504.375,0 -251.3811,251.2292 c -138.2596,138.1761 -252.1069,251.2293 -252.9939,251.2293 -0.887,0 -114.7343,-113.0532 -252.9939,-251.2293 z"
       fill="#000000"
       id="path6" />
  </g>
  <text
     x="0"
     y="987.2164"
     fill="#000000"
     font-size="5px"
     font-weight="bold"
     font-family="'Helvetica Neue', Helvetica, Arial-Unicode, Arial, Sans-serif"
     id="text8">Created by Hector</text>
  <text
     x="0"
     y="992.2164"
     fill="#000000"
     font-size="5px"
     font-weight="bold"
     font-family="'Helvetica Neue', Helvetica, Arial-Unicode, Arial, Sans-serif"
     id="text10">from the Noun Project</text>
</svg>
