<?xml version="1.0" encoding="UTF-8" standalone="no"?>
<svg
   xmlns:dc="http://purl.org/dc/elements/1.1/"
   xmlns:cc="http://creativecommons.org/ns#"
   xmlns:rdf="http://www.w3.org/1999/02/22-rdf-syntax-ns#"
   xmlns:svg="http://www.w3.org/2000/svg"
   xmlns="http://www.w3.org/2000/svg"
   xmlns:sodipodi="http://sodipodi.sourceforge.net/DTD/sodipodi-0.dtd"
   xmlns:inkscape="http://www.inkscape.org/namespaces/inkscape"
   version="1.1"
   x="0px"
   y="0px"
   viewBox="0 0 30 37.5"
   xml:space="preserve"
   id="svg2"
   inkscape:version="0.91 r13725"
   sodipodi:docname="noun_585955_cc.svg"><metadata
     id="metadata26"><rdf:RDF><cc:Work
         rdf:about=""><dc:format>image/svg+xml</dc:format><dc:type
           rdf:resource="http://purl.org/dc/dcmitype/StillImage" /></cc:Work></rdf:RDF></metadata><defs
     id="defs24" /><sodipodi:namedview
     pagecolor="#ffffff"
     bordercolor="#666666"
     borderopacity="1"
     objecttolerance="10"
     gridtolerance="10"
     guidetolerance="10"
     inkscape:pageopacity="0"
     inkscape:pageshadow="2"
     inkscape:window-width="1229"
     inkscape:window-height="776"
     id="namedview22"
     showgrid="false"
     inkscape:zoom="6.2933333"
     inkscape:cx="15"
     inkscape:cy="18.75"
     inkscape:window-x="51"
     inkscape:window-y="24"
     inkscape:window-maximized="1"
     inkscape:current-layer="svg2" /><g
     transform="translate(-150 -260)"
     id="g4"
     style="fill:#ffffff"><g
       id="g6"
       style="fill:#ffffff"><polygon
         points="177,264 174,264 174,261   "
         id="polygon8"
         style="fill:#ffffff" /><polygon
         points="173,261 162,261 162,270 177,270 177,265 173,265   "
         id="polygon10"
         style="fill:#ffffff" /><rect
         x="151"
         y="269"
         width="2"
         height="18"
         id="rect12"
         style="fill:#ffffff" /><rect
         x="154"
         y="268"
         width="5"
         height="20"
         id="rect14"
         style="fill:#ffffff" /><path
         d="M178,269v2h-17v-2h-1v18h19v-18H178z M166,284h-2v-2h2V284z M166,281h-2v-2h2V281z M166,278h-2v-2h2V278z M166,275h-2v-2    h2V275z M169,284h-2v-2h2V284z M169,281h-2v-2h2V281z M169,278h-2v-2h2V278z M169,275h-2v-2h2V275z M172,284h-2v-2h2V284z     M172,281h-2v-2h2V281z M172,278h-2v-2h2V278z M172,275h-2v-2h2V275z M175,284h-2v-2h2V284z M175,281h-2v-2h2V281z M175,278h-2v-2    h2V278z M175,275h-2v-2h2V275z"
         id="path16"
         style="fill:#ffffff" /></g></g></svg>