<?xml version="1.0" encoding="UTF-8" standalone="no"?>
<svg
   xmlns:dc="http://purl.org/dc/elements/1.1/"
   xmlns:cc="http://creativecommons.org/ns#"
   xmlns:rdf="http://www.w3.org/1999/02/22-rdf-syntax-ns#"
   xmlns:svg="http://www.w3.org/2000/svg"
   xmlns="http://www.w3.org/2000/svg"
   xmlns:sodipodi="http://sodipodi.sourceforge.net/DTD/sodipodi-0.dtd"
   xmlns:inkscape="http://www.inkscape.org/namespaces/inkscape"
   id="twitter"
   viewBox="0 0 126.24 102.59"
   version="1.1"
   inkscape:version="0.91 r13725"
   sodipodi:docname="twitter-original.svg">
  <metadata
     id="metadata68">
    <rdf:RDF>
      <cc:Work
         rdf:about="">
        <dc:format>image/svg+xml</dc:format>
        <dc:type
           rdf:resource="http://purl.org/dc/dcmitype/StillImage" />
      </cc:Work>
    </rdf:RDF>
  </metadata>
  <sodipodi:namedview
     pagecolor="#ffffff"
     bordercolor="#666666"
     borderopacity="1"
     objecttolerance="10"
     gridtolerance="10"
     guidetolerance="10"
     inkscape:pageopacity="0"
     inkscape:pageshadow="2"
     inkscape:window-width="640"
     inkscape:window-height="480"
     id="namedview66"
     showgrid="false"
     inkscape:zoom="2.3004192"
     inkscape:cx="63.119999"
     inkscape:cy="51.294998"
     inkscape:window-x="61"
     inkscape:window-y="34"
     inkscape:window-maximized="0"
     inkscape:current-layer="twitter" />
  <defs
     id="defs59">
    <style
       id="style61">.cls-1{fill:#1da1f2;}</style>
  </defs>
  <title
     id="title63">twitter-original</title>
  <path
     id="original"
     class="cls-1"
     d="M40.58,115.3c47.64,0,73.69-39.47,73.69-73.69,0-1.12,0-2.24-.07-3.35a52.7,52.7,0,0,0,12.92-13.41,51.7,51.7,0,0,1-14.87,4.08A26,26,0,0,0,123.63,14.6a51.9,51.9,0,0,1-16.45,6.29A25.92,25.92,0,0,0,63.05,44.51,73.53,73.53,0,0,1,9.67,17.45a25.92,25.92,0,0,0,8,34.58A25.71,25.71,0,0,1,6,48.78c0,.11,0,.22,0,.33A25.91,25.91,0,0,0,26.73,74.5a25.86,25.86,0,0,1-11.7.44,25.93,25.93,0,0,0,24.2,18A52,52,0,0,1,7.06,104a52.72,52.72,0,0,1-6.18-.36,73.32,73.32,0,0,0,39.7,11.63"
     transform="translate(-0.88 -12.7)"
     style="fill:#ffffff" />
</svg>
