<?xml version="1.0" encoding="UTF-8" standalone="no"?>
<svg
   xmlns:dc="http://purl.org/dc/elements/1.1/"
   xmlns:cc="http://creativecommons.org/ns#"
   xmlns:rdf="http://www.w3.org/1999/02/22-rdf-syntax-ns#"
   xmlns:svg="http://www.w3.org/2000/svg"
   xmlns="http://www.w3.org/2000/svg"
   xmlns:sodipodi="http://sodipodi.sourceforge.net/DTD/sodipodi-0.dtd"
   xmlns:inkscape="http://www.inkscape.org/namespaces/inkscape"
   version="1.1"
   x="0px"
   y="0px"
   viewBox="0 0 100 125"
   style="enable-background:new 0 0 100 100;"
   xml:space="preserve"
   id="svg87"
   inkscape:version="0.91 r13725"
   sodipodi:docname="noun_816117_cc.svg"><metadata
     id="metadata105"><rdf:RDF><cc:Work
         rdf:about=""><dc:format>image/svg+xml</dc:format><dc:type
           rdf:resource="http://purl.org/dc/dcmitype/StillImage" /></cc:Work></rdf:RDF></metadata><defs
     id="defs103"><clipPath
       clipPathUnits="userSpaceOnUse"
       id="clipPath3439"><path
         id="path3441"
         d="m 14.7,64.7 0,-2 12.6,-28.4 -7.2,30.2 c 0,0 0,0.1 0,0.1 0,0.1 0,0.2 0,0.3 0,0.1 0,0.1 0,0.2 0,0 0,0.1 0,0.1 0,0.1 0.1,0.1 0.1,0.2 0,0 0,0 0,0 0,0 0,0 0,0 0.1,0.1 0.2,0.2 0.3,0.2 0,0 0.1,0 0.1,0 0.1,0.1 0.3,0.1 0.4,0.1 0,0 0,0 0,0 l 58.2,0 c 0.1,0 0.3,0 0.4,-0.1 0,0 0.1,0 0.1,0 0.1,-0.1 0.2,-0.1 0.3,-0.2 0,0 0,0 0,0 0,0 0,0 0,0 0,-0.1 0.1,-0.1 0.1,-0.2 0,0 0,-0.1 0,-0.1 0,-0.1 0,-0.1 0,-0.2 0,-0.1 0,-0.2 0,-0.3 0,0 0,-0.1 0,-0.1 L 73,34.4 l 12.5,28.4 0,1.9 c 0,0.6 0.4,1 1,1 0.6,0 1,-0.4 1,-1 l 0,-2.1 c 0,-0.1 0,-0.3 -0.1,-0.4 L 70.6,24 c 0,-0.1 -0.1,-0.1 -0.1,-0.2 -0.1,-0.2 -0.2,-0.4 -0.4,-0.6 L 50.6,11.1 c 0,0 -0.1,0 -0.1,0 0,0 -0.1,0 -0.1,0 -0.1,0 -0.2,-0.1 -0.3,-0.1 0,0 0,0 0,0 0,0 0,0 0,0 -0.1,0 -0.2,0 -0.3,0.1 0,0 -0.1,0 -0.1,0 0,0 -0.1,0 -0.1,0 L 30.2,23.2 c -0.1,0.1 -0.2,0.2 -0.3,0.3 -0.1,0.1 -0.2,0.2 -0.2,0.3 L 12.8,62 c -0.1,0.1 -0.1,0.3 -0.1,0.4 l 0,2.2 c 0,0.6 0.4,1 1,1 0.6,0 1,-0.4 1,-0.9 z m 34.4,-1 -23.8,0 C 40.1,55.3 46.4,39.2 49.1,27.2 l 0,36.5 z m 2,-36.6 c 2.7,12 9,28.2 23.8,36.6 l -23.8,0 0,-36.6 z M 77.7,62.9 C 55,51.6 51.7,21.6 51.2,13.8 l 17.4,10.9 9.1,38.2 z M 49,13.8 C 48.6,21.3 45.4,51.6 22.4,62.9 L 31.5,24.7 49,13.8 Z"
         inkscape:connector-curvature="0" /></clipPath><clipPath
       clipPathUnits="userSpaceOnUse"
       id="clipPath3443"><path
         id="path3445"
         d="m 14.7,64.7 0,-2 12.6,-28.4 -7.2,30.2 c 0,0 0,0.1 0,0.1 0,0.1 0,0.2 0,0.3 0,0.1 0,0.1 0,0.2 0,0 0,0.1 0,0.1 0,0.1 0.1,0.1 0.1,0.2 0,0 0,0 0,0 0,0 0,0 0,0 0.1,0.1 0.2,0.2 0.3,0.2 0,0 0.1,0 0.1,0 0.1,0.1 0.3,0.1 0.4,0.1 0,0 0,0 0,0 l 58.2,0 c 0.1,0 0.3,0 0.4,-0.1 0,0 0.1,0 0.1,0 0.1,-0.1 0.2,-0.1 0.3,-0.2 0,0 0,0 0,0 0,0 0,0 0,0 0,-0.1 0.1,-0.1 0.1,-0.2 0,0 0,-0.1 0,-0.1 0,-0.1 0,-0.1 0,-0.2 0,-0.1 0,-0.2 0,-0.3 0,0 0,-0.1 0,-0.1 L 73,34.4 l 12.5,28.4 0,1.9 c 0,0.6 0.4,1 1,1 0.6,0 1,-0.4 1,-1 l 0,-2.1 c 0,-0.1 0,-0.3 -0.1,-0.4 L 70.6,24 c 0,-0.1 -0.1,-0.1 -0.1,-0.2 -0.1,-0.2 -0.2,-0.4 -0.4,-0.6 L 50.6,11.1 c 0,0 -0.1,0 -0.1,0 0,0 -0.1,0 -0.1,0 -0.1,0 -0.2,-0.1 -0.3,-0.1 0,0 0,0 0,0 0,0 0,0 0,0 -0.1,0 -0.2,0 -0.3,0.1 0,0 -0.1,0 -0.1,0 0,0 -0.1,0 -0.1,0 L 30.2,23.2 c -0.1,0.1 -0.2,0.2 -0.3,0.3 -0.1,0.1 -0.2,0.2 -0.2,0.3 L 12.8,62 c -0.1,0.1 -0.1,0.3 -0.1,0.4 l 0,2.2 c 0,0.6 0.4,1 1,1 0.6,0 1,-0.4 1,-0.9 z m 34.4,-1 -23.8,0 C 40.1,55.3 46.4,39.2 49.1,27.2 l 0,36.5 z m 2,-36.6 c 2.7,12 9,28.2 23.8,36.6 l -23.8,0 0,-36.6 z M 77.7,62.9 C 55,51.6 51.7,21.6 51.2,13.8 l 17.4,10.9 9.1,38.2 z M 49,13.8 C 48.6,21.3 45.4,51.6 22.4,62.9 L 31.5,24.7 49,13.8 Z"
         inkscape:connector-curvature="0" /></clipPath></defs><sodipodi:namedview
     pagecolor="#ffffff"
     bordercolor="#666666"
     borderopacity="1"
     objecttolerance="10"
     gridtolerance="10"
     guidetolerance="10"
     inkscape:pageopacity="0"
     inkscape:pageshadow="2"
     inkscape:window-width="1229"
     inkscape:window-height="776"
     id="namedview101"
     showgrid="false"
     inkscape:zoom="1.888"
     inkscape:cx="50"
     inkscape:cy="62.5"
     inkscape:window-x="51"
     inkscape:window-y="24"
     inkscape:window-maximized="1"
     inkscape:current-layer="svg87" /><style
     type="text/css"
     id="style89">
	.st0{fill:none;stroke:#000000;stroke-width:2;stroke-linecap:round;stroke-linejoin:round;stroke-miterlimit:10;}
	.st1{fill:none;stroke:#000000;stroke-width:2;stroke-linecap:round;stroke-linejoin:round;}
	.st2{fill:none;stroke:#000000;stroke-width:2;stroke-linecap:round;stroke-linejoin:round;stroke-dasharray:2.9177,3.8902;}
	.st3{fill:none;stroke:#000000;stroke-width:2;stroke-linecap:round;stroke-linejoin:round;stroke-dasharray:2.9655,3.954;}
	.st4{fill:none;stroke:#000000;stroke-width:2;stroke-linecap:round;stroke-linejoin:round;stroke-dasharray:2.7633,3.6844;}
</style><path
     d="M86.6,71.6c-0.6,0-1,0.4-1,1c0,2.3-1.9,4.2-4.2,4.2c-2.3,0-4.2-1.9-4.2-4.2c0-0.6-0.4-1-1-1s-1,0.4-1,1  c0,2.3-1.9,4.2-4.2,4.2c-2.3,0-4.2-1.9-4.2-4.2c0-0.6-0.4-1-1-1s-1,0.4-1,1c0,2.3-1.9,4.2-4.2,4.2c-2.3,0-4.2-1.9-4.2-4.2  c0-0.6-0.4-1-1-1s-1,0.4-1,1c0,2.3-1.9,4.2-4.2,4.2s-4.2-1.9-4.2-4.2c0-0.6-0.4-1-1-1s-1,0.4-1,1c0,2.3-1.9,4.2-4.2,4.2  c-2.3,0-4.2-1.9-4.2-4.2c0-0.6-0.4-1-1-1s-1,0.4-1,1c0,2.3-1.9,4.2-4.2,4.2c-2.3,0-4.2-1.9-4.2-4.2c0-0.6-0.4-1-1-1s-1,0.4-1,1  c0,2.3-1.9,4.2-4.2,4.2c-2.3,0-4.2-1.9-4.2-4.2c0-0.6-0.4-1-1-1s-1,0.4-1,1c0,3.4,2.8,6.2,6.2,6.2c2.2,0,4.1-1.1,5.2-2.8  c1.1,1.7,3,2.8,5.2,2.8c2.2,0,4.1-1.1,5.2-2.8c1.1,1.7,3,2.8,5.2,2.8c2.2,0,4.1-1.1,5.2-2.8c1.1,1.7,3,2.8,5.2,2.8s4.1-1.1,5.2-2.8  c1.1,1.7,3,2.8,5.2,2.8c2.2,0,4.1-1.1,5.2-2.8c1.1,1.7,3,2.8,5.2,2.8c2.2,0,4.1-1.1,5.2-2.8c1.1,1.7,3,2.8,5.2,2.8  c3.4,0,6.2-2.8,6.2-6.2C87.6,72,87.2,71.6,86.6,71.6z"
     id="path91"
     style="fill:#ffffff" /><path
     d="M86.6,81.3c-0.6,0-1,0.4-1,1c0,2.3-1.9,4.2-4.2,4.2c-2.3,0-4.2-1.9-4.2-4.2c0-0.6-0.4-1-1-1s-1,0.4-1,1  c0,2.3-1.9,4.2-4.2,4.2c-2.3,0-4.2-1.9-4.2-4.2c0-0.6-0.4-1-1-1s-1,0.4-1,1c0,2.3-1.9,4.2-4.2,4.2c-2.3,0-4.2-1.9-4.2-4.2  c0-0.6-0.4-1-1-1s-1,0.4-1,1c0,2.3-1.9,4.2-4.2,4.2s-4.2-1.9-4.2-4.2c0-0.6-0.4-1-1-1s-1,0.4-1,1c0,2.3-1.9,4.2-4.2,4.2  c-2.3,0-4.2-1.9-4.2-4.2c0-0.6-0.4-1-1-1s-1,0.4-1,1c0,2.3-1.9,4.2-4.2,4.2c-2.3,0-4.2-1.9-4.2-4.2c0-0.6-0.4-1-1-1s-1,0.4-1,1  c0,2.3-1.9,4.2-4.2,4.2c-2.3,0-4.2-1.9-4.2-4.2c0-0.6-0.4-1-1-1s-1,0.4-1,1c0,3.4,2.8,6.2,6.2,6.2c2.2,0,4.1-1.1,5.2-2.8  c1.1,1.7,3,2.8,5.2,2.8c2.2,0,4.1-1.1,5.2-2.8c1.1,1.7,3,2.8,5.2,2.8c2.2,0,4.1-1.1,5.2-2.8c1.1,1.7,3,2.8,5.2,2.8s4.1-1.1,5.2-2.8  c1.1,1.7,3,2.8,5.2,2.8c2.2,0,4.1-1.1,5.2-2.8c1.1,1.7,3,2.8,5.2,2.8c2.2,0,4.1-1.1,5.2-2.8c1.1,1.7,3,2.8,5.2,2.8  c3.4,0,6.2-2.8,6.2-6.2C87.6,81.7,87.2,81.3,86.6,81.3z"
     id="path93"
     style="fill:#ffffff" /><path
     d="M14.7,64.7v-2l12.6-28.4l-7.2,30.2c0,0,0,0.1,0,0.1c0,0.1,0,0.2,0,0.3c0,0.1,0,0.1,0,0.2c0,0,0,0.1,0,0.1  c0,0.1,0.1,0.1,0.1,0.2c0,0,0,0,0,0c0,0,0,0,0,0c0.1,0.1,0.2,0.2,0.3,0.2c0,0,0.1,0,0.1,0c0.1,0.1,0.3,0.1,0.4,0.1c0,0,0,0,0,0h58.2  c0.1,0,0.3,0,0.4-0.1c0,0,0.1,0,0.1,0c0.1-0.1,0.2-0.1,0.3-0.2c0,0,0,0,0,0c0,0,0,0,0,0c0-0.1,0.1-0.1,0.1-0.2c0,0,0-0.1,0-0.1  c0-0.1,0-0.1,0-0.2c0-0.1,0-0.2,0-0.3c0,0,0-0.1,0-0.1L73,34.4l12.5,28.4v1.9c0,0.6,0.4,1,1,1s1-0.4,1-1v-2.1c0-0.1,0-0.3-0.1-0.4  L70.6,24c0-0.1-0.1-0.1-0.1-0.2c-0.1-0.2-0.2-0.4-0.4-0.6L50.6,11.1c0,0-0.1,0-0.1,0c0,0-0.1,0-0.1,0c-0.1,0-0.2-0.1-0.3-0.1  c0,0,0,0,0,0c0,0,0,0,0,0c-0.1,0-0.2,0-0.3,0.1c0,0-0.1,0-0.1,0c0,0-0.1,0-0.1,0L30.2,23.2c-0.1,0.1-0.2,0.2-0.3,0.3  c-0.1,0.1-0.2,0.2-0.2,0.3L12.8,62c-0.1,0.1-0.1,0.3-0.1,0.4v2.2c0,0.6,0.4,1,1,1S14.7,65.2,14.7,64.7z M49.1,63.7H25.3  c14.8-8.4,21.1-24.5,23.8-36.5V63.7z M51.1,27.1c2.7,12,9,28.2,23.8,36.6H51.1V27.1z M77.7,62.9C55,51.6,51.7,21.6,51.2,13.8  l17.4,10.9L77.7,62.9z M49,13.8c-0.4,7.5-3.6,37.8-26.6,49.1l9.1-38.2L49,13.8z"
     id="path95"
     style="fill:#ffffff" /><path
     id="path3433"
     d="M86.6,71.6c-0.6,0-1,0.4-1,1c0,2.3-1.9,4.2-4.2,4.2c-2.3,0-4.2-1.9-4.2-4.2c0-0.6-0.4-1-1-1s-1,0.4-1,1  c0,2.3-1.9,4.2-4.2,4.2c-2.3,0-4.2-1.9-4.2-4.2c0-0.6-0.4-1-1-1s-1,0.4-1,1c0,2.3-1.9,4.2-4.2,4.2c-2.3,0-4.2-1.9-4.2-4.2  c0-0.6-0.4-1-1-1s-1,0.4-1,1c0,2.3-1.9,4.2-4.2,4.2s-4.2-1.9-4.2-4.2c0-0.6-0.4-1-1-1s-1,0.4-1,1c0,2.3-1.9,4.2-4.2,4.2  c-2.3,0-4.2-1.9-4.2-4.2c0-0.6-0.4-1-1-1s-1,0.4-1,1c0,2.3-1.9,4.2-4.2,4.2c-2.3,0-4.2-1.9-4.2-4.2c0-0.6-0.4-1-1-1s-1,0.4-1,1  c0,2.3-1.9,4.2-4.2,4.2c-2.3,0-4.2-1.9-4.2-4.2c0-0.6-0.4-1-1-1s-1,0.4-1,1c0,3.4,2.8,6.2,6.2,6.2c2.2,0,4.1-1.1,5.2-2.8  c1.1,1.7,3,2.8,5.2,2.8c2.2,0,4.1-1.1,5.2-2.8c1.1,1.7,3,2.8,5.2,2.8c2.2,0,4.1-1.1,5.2-2.8c1.1,1.7,3,2.8,5.2,2.8s4.1-1.1,5.2-2.8  c1.1,1.7,3,2.8,5.2,2.8c2.2,0,4.1-1.1,5.2-2.8c1.1,1.7,3,2.8,5.2,2.8c2.2,0,4.1-1.1,5.2-2.8c1.1,1.7,3,2.8,5.2,2.8  c3.4,0,6.2-2.8,6.2-6.2C87.6,72,87.2,71.6,86.6,71.6z"
     clip-path="url(#clipPath3443)" /><path
     id="path3435"
     d="M86.6,81.3c-0.6,0-1,0.4-1,1c0,2.3-1.9,4.2-4.2,4.2c-2.3,0-4.2-1.9-4.2-4.2c0-0.6-0.4-1-1-1s-1,0.4-1,1  c0,2.3-1.9,4.2-4.2,4.2c-2.3,0-4.2-1.9-4.2-4.2c0-0.6-0.4-1-1-1s-1,0.4-1,1c0,2.3-1.9,4.2-4.2,4.2c-2.3,0-4.2-1.9-4.2-4.2  c0-0.6-0.4-1-1-1s-1,0.4-1,1c0,2.3-1.9,4.2-4.2,4.2s-4.2-1.9-4.2-4.2c0-0.6-0.4-1-1-1s-1,0.4-1,1c0,2.3-1.9,4.2-4.2,4.2  c-2.3,0-4.2-1.9-4.2-4.2c0-0.6-0.4-1-1-1s-1,0.4-1,1c0,2.3-1.9,4.2-4.2,4.2c-2.3,0-4.2-1.9-4.2-4.2c0-0.6-0.4-1-1-1s-1,0.4-1,1  c0,2.3-1.9,4.2-4.2,4.2c-2.3,0-4.2-1.9-4.2-4.2c0-0.6-0.4-1-1-1s-1,0.4-1,1c0,3.4,2.8,6.2,6.2,6.2c2.2,0,4.1-1.1,5.2-2.8  c1.1,1.7,3,2.8,5.2,2.8c2.2,0,4.1-1.1,5.2-2.8c1.1,1.7,3,2.8,5.2,2.8c2.2,0,4.1-1.1,5.2-2.8c1.1,1.7,3,2.8,5.2,2.8s4.1-1.1,5.2-2.8  c1.1,1.7,3,2.8,5.2,2.8c2.2,0,4.1-1.1,5.2-2.8c1.1,1.7,3,2.8,5.2,2.8c2.2,0,4.1-1.1,5.2-2.8c1.1,1.7,3,2.8,5.2,2.8  c3.4,0,6.2-2.8,6.2-6.2C87.6,81.7,87.2,81.3,86.6,81.3z"
     clip-path="url(#clipPath3439)" /></svg>