<?xml version="1.0" encoding="UTF-8" standalone="no"?>
<svg
   xmlns:dc="http://purl.org/dc/elements/1.1/"
   xmlns:cc="http://creativecommons.org/ns#"
   xmlns:rdf="http://www.w3.org/1999/02/22-rdf-syntax-ns#"
   xmlns:svg="http://www.w3.org/2000/svg"
   xmlns="http://www.w3.org/2000/svg"
   xmlns:sodipodi="http://sodipodi.sourceforge.net/DTD/sodipodi-0.dtd"
   xmlns:inkscape="http://www.inkscape.org/namespaces/inkscape"
   version="1.1"
   x="0px"
   y="0px"
   viewBox="0 0 48 60"
   enable-background="new 0 0 48 48"
   xml:space="preserve"
   id="svg2"
   inkscape:version="0.91 r13725"
   sodipodi:docname="noun_784265_cc.svg"><metadata
     id="metadata20"><rdf:RDF><cc:Work
         rdf:about=""><dc:format>image/svg+xml</dc:format><dc:type
           rdf:resource="http://purl.org/dc/dcmitype/StillImage" /></cc:Work></rdf:RDF></metadata><defs
     id="defs18" /><sodipodi:namedview
     pagecolor="#ffffff"
     bordercolor="#666666"
     borderopacity="1"
     objecttolerance="10"
     gridtolerance="10"
     guidetolerance="10"
     inkscape:pageopacity="0"
     inkscape:pageshadow="2"
     inkscape:window-width="640"
     inkscape:window-height="480"
     id="namedview16"
     showgrid="false"
     inkscape:zoom="3.9333333"
     inkscape:cx="24"
     inkscape:cy="30"
     inkscape:window-x="61"
     inkscape:window-y="34"
     inkscape:window-maximized="0"
     inkscape:current-layer="svg2" /><g
     id="g4"
     style="fill:#ffffff"><path
       d="M15,11c2.8,0,5-2.2,5-5s-2.2-5-5-5s-5,2.2-5,5S12.2,11,15,11z M15,3c1.7,0,3,1.3,3,3s-1.3,3-3,3s-3-1.3-3-3S13.3,3,15,3z"
       id="path6"
       style="fill:#ffffff" /><path
       d="M32,11c2.8,0,5-2.2,5-5s-2.2-5-5-5s-5,2.2-5,5S29.2,11,32,11z M32,3c1.7,0,3,1.3,3,3s-1.3,3-3,3s-3-1.3-3-3S30.3,3,32,3z"
       id="path8"
       style="fill:#ffffff" /><path
       d="M46,27.6c-0.8-6-2.8-10.2-6-12.6c-1.4-1-2.9-2-6.1-2H10c-0.6,0-1,0.1-1.5,0.4C2.5,16.9,2,26.5,2,26.9C2,27.7,2.6,30,4.9,30   c1.9,0,3-1.3,3.1-2.9c0-1.3,0.4-3.2,1-5v5.2L8,43.6C7.9,45,8.9,47,11,47c1.6,0,2.9-1.2,3-2.8l0.8-13c0-0.2,0.4-0.2,0.4,0l0.8,13   c0.1,1.6,1.4,2.8,3,2.8c1.8,0,3.1-1.5,3-3.2l-1-16.4V19h6v27c0,0.6,0.4,1,1,1h8c0.6,0,1-0.4,1-1V20.3c1.1,1.2,2.4,3.6,3,8.1   c0.2,1.5,1.5,2.6,3,2.6l0,0C45.1,31,46.2,29.2,46,27.6z M43,29L43,29c-0.5,0-0.9-0.4-1-0.9c-1-7.1-3.6-9.7-5.6-10.7   c-0.3-0.1-0.7-0.1-1,0.1C35.2,17.7,35,18,35,18.4V45h-2V31c0-0.6-0.4-1-1-1c-0.6,0-1,0.4-1,1v14h-2V18c0-0.6-0.4-1-1-1h-8   c-0.6,0-1,0.4-1,1v9.5l1,16.4c0,0.3-0.1,1.1-1,1.1c-0.5,0-1-0.4-1-0.9l-0.8-13c-0.1-1.2-1-2.1-2.2-2.1s-2.1,0.9-2.2,2.1l-0.8,13   c0,0.5-0.5,0.9-1,0.9c-0.8,0-1-0.7-1-1.3l1-16.3v-8.9c0-0.4-0.2-0.8-0.6-0.9c-0.4-0.2-0.8-0.1-1.1,0.2C6.9,20.2,6.1,24.9,6,27   c0,0.5-0.5,1-1,1l0,0c-0.9-0.1-1-0.8-1-1c0-0.4,0.4-8.9,5.5-11.8c0.1,0,0.3-0.1,0.6-0.1h23.8c2.6,0,3.7,0.7,4.9,1.6   c2.7,2.1,4.5,5.9,5.2,11.3C44.1,28.4,43.8,29,43,29z"
       id="path10"
       style="fill:#ffffff" /></g></svg>