<svg xmlns="http://www.w3.org/2000/svg" xmlns:xlink="http://www.w3.org/1999/xlink" version="1.1" x="0px" y="0px" viewBox="0 0 100 125" enable-background="new 0 0 100 100" xml:space="preserve"><path d="M41.625,92.46h-4.936c-0.653,0-1.265-0.318-1.639-0.854s-0.464-1.219-0.24-1.832l11.414-31.296H28.337  c-0.653,0-1.265-0.318-1.639-0.854s-0.464-1.219-0.24-1.832L43.577,8.854c0.289-0.789,1.039-1.314,1.879-1.314h23.922  c0.653,0,1.266,0.318,1.639,0.854c0.375,0.535,0.465,1.219,0.24,1.832L59.844,41.521h11.819c0.73,0,1.402,0.398,1.754,1.04  c0.352,0.641,0.324,1.423-0.07,2.038L43.309,91.538C42.942,92.112,42.307,92.46,41.625,92.46z M39.547,88.46h0.983l27.479-42.939  H56.985c-0.652,0-1.265-0.318-1.639-0.854s-0.464-1.219-0.24-1.832L66.521,11.54H46.856l-15.66,42.938h17.886  c0.653,0,1.265,0.318,1.639,0.854c0.375,0.535,0.464,1.219,0.24,1.832L39.547,88.46z"/><text x="0" y="115" fill="#000000" font-size="5px" font-weight="bold" font-family="'Helvetica Neue', Helvetica, Arial-Unicode, Arial, Sans-serif">Created by Nikita Kozin</text><text x="0" y="120" fill="#000000" font-size="5px" font-weight="bold" font-family="'Helvetica Neue', Helvetica, Arial-Unicode, Arial, Sans-serif">from the Noun Project</text></svg>