<svg xmlns="http://www.w3.org/2000/svg" xmlns:xlink="http://www.w3.org/1999/xlink" version="1.1" x="0px" y="0px" viewBox="0 0 100 125" style="enable-background:new 0 0 100 100;" xml:space="preserve"><g><path d="M91.496,43.955H83.42c-2.311-5.145-7.477-8.728-13.484-8.728c-5.584,0-10.443,3.1-12.955,7.669   c-4.508-3.801-9.155-3.785-13.94,0.043c-2.505-4.595-7.376-7.712-12.979-7.712c-6.006,0-11.174,3.583-13.484,8.728H8.503v4.499   h6.866c-0.054,0.507-0.08,1.025-0.08,1.548c0,8.157,6.614,14.772,14.772,14.772s14.771-6.615,14.771-14.772   c0-1.209-0.144-2.383-0.417-3.506c3.369-2.35,7.472-2.587,11.162,0.012c-0.271,1.121-0.414,2.288-0.414,3.494   c0,8.157,6.613,14.772,14.771,14.772c8.16,0,14.773-6.615,14.773-14.772c0-0.522-0.027-1.041-0.08-1.548h6.867V43.955z    M30.062,60.725c-5.922,0-10.724-4.801-10.724-10.723c0-5.924,4.802-10.725,10.724-10.725c5.923,0,10.724,4.801,10.724,10.725   C40.786,55.924,35.985,60.725,30.062,60.725z M69.936,60.725c-5.92,0-10.725-4.801-10.725-10.723   c0-5.924,4.805-10.725,10.725-10.725c5.922,0,10.725,4.801,10.725,10.725C80.66,55.924,75.857,60.725,69.936,60.725z"/></g><text x="0" y="115" fill="#000000" font-size="5px" font-weight="bold" font-family="'Helvetica Neue', Helvetica, Arial-Unicode, Arial, Sans-serif">Created by Ilia Sokolov</text><text x="0" y="120" fill="#000000" font-size="5px" font-weight="bold" font-family="'Helvetica Neue', Helvetica, Arial-Unicode, Arial, Sans-serif">from the Noun Project</text></svg>